<?xml version="1.0" encoding="UTF-8"?>
<svg id="Layer_1" xmlns="http://www.w3.org/2000/svg" viewBox="0 0 301.17 97.53">
  <defs>
    <style>
      .cls-1 {
        fill: #b2d235;
      }

      .cls-2 {
        fill: #231f20;
      }

      .cls-3 {
        fill: #fff;
      }
    </style>
  </defs>
  <path class="cls-2" d="M276.56,97.53H24.6c-13.61,0-24.6-11.02-24.6-24.6V24.6C0,11.02,10.99,0,24.6,0h251.96c13.56,0,24.6,11.02,24.6,24.6v48.32c0,13.58-11.05,24.6-24.6,24.6M24.6,4.73C13.61,4.73,4.73,13.61,4.73,24.6v48.32c0,10.99,8.88,19.88,19.88,19.88h251.96c10.94,0,19.88-8.88,19.88-19.88V24.6c0-10.99-8.94-19.88-19.88-19.88H24.6"/>
  <path class="cls-3" d="M276.56,4.73c10.94,0,19.88,8.88,19.88,19.88v48.32c0,10.99-8.94,19.88-19.88,19.88H24.6c-10.99,0-19.88-8.88-19.88-19.88V24.6C4.73,13.61,13.61,4.73,24.6,4.73h251.96"/>
  <path class="cls-1" d="M276.56,88.05c8.32,0,15.15-6.75,15.15-15.12V24.6c0-8.37-6.83-15.12-15.15-15.12H24.6c-8.37,0-15.15,6.75-15.15,15.12v48.32c0,8.37,6.78,15.12,15.15,15.12h251.96"/>
  <path class="cls-2" d="M276.56,83.32H24.6c-5.75,0-10.42-4.67-10.42-10.39V24.6c0-5.72,4.67-10.39,10.42-10.39h251.96c5.75,0,10.37,4.67,10.37,10.39v48.32c0,5.72-4.61,10.39-10.37,10.39"/>
  <path class="cls-1" d="M245.07,28.65c0-5.89-3.13-7.75-8.03-7.75h-5.52v15.66h5.13c5.52,0,8.43-2.05,8.43-7.92h0ZM240.63,28.7c0,3.1-1.03,4.13-3.76,4.13h-.97v-8.23h1.08c2.73,0,3.65,1.22,3.65,4.1h0ZM215.74,36.56h11.33v-3.79h-6.95v-11.87h-4.39v15.66h0ZM206.8,36.56h4.67l-5.69-15.66h-4.39l-5.64,15.66h4.61l.91-2.73h4.67l.85,2.73h0ZM204.92,30.38h-2.62l.29-1.05c.57-1.99.8-2.85,1.02-3.9.17,1.05.46,1.88,1.02,3.9l.29,1.05h0ZM190,36.56l3.76-15.66h-4.44l-.4,2.62c-.4,2.22-.8,4.93-.97,6.81-.17-1.85-.68-4.56-1.14-6.78l-.57-2.65h-3.99l-.51,2.65c-.51,2.22-.97,4.93-1.2,6.78-.17-1.88-.57-4.58-.91-6.81l-.46-2.62h-4.5l3.76,15.66h3.99l.68-3.39c.51-2.42,1.03-5.38,1.08-6.52.11,1.14.57,4.1,1.08,6.52l.74,3.39h3.99ZM171.2,36.56l-3.13-5.98c1.71-.77,2.79-2.25,2.79-4.58,0-3.73-2.45-5.1-6.09-5.1h-7.01v15.66h4.27v-5.3h1.71l2.56,5.3h4.9ZM166.53,26.11c0,1.11-.57,1.74-1.94,1.74h-2.56v-3.42h2.62c1.37,0,1.88.68,1.88,1.68h0ZM140.79,36.56h12.19v-3.64h-7.86v-2.68h4.61v-3.62h-4.61v-2.08h7.69v-3.65h-12.02v15.66h0ZM131.85,24.69h4.39v-3.79h-13.1v3.79h4.39v11.87h4.33v-11.87h0ZM114.82,24.69h4.39v-3.79h-13.1v3.79h4.39v11.87h4.33v-11.87h0ZM89.82,36.56h12.13v-3.64h-7.86v-2.68h4.67v-3.62h-4.67v-2.08h7.69v-3.65h-11.96v15.66h0ZM74.04,36.56h11.33v-3.79h-6.95v-11.87h-4.39v15.66h0ZM70.05,36.56l-5.3-10.14,4.78-5.52h-5.3l-1.25,1.59c-1.03,1.28-2.39,3.08-3.02,4.13,0-1.14.06-2.56.06-3.87v-1.85h-4.44v15.66h4.44v-4.73l1.59-1.94,3.3,6.66h5.13Z"/>
  <path class="cls-3" d="M276.39,72.25c-3.13-.6-6.78,1.25-9.8,1.14-.11-4.13-1.94-7.2-.34-11.56.23-2.14,3.59-.74,4.39-2.42.85-1.28,2.85-.88,3.13-2.62-1.25-.6-1.2-2.62-2.79-2.68-1.54.85-3.02,1.94-5.13,1.45.23-3.16-.34-7.57.63-10.37,3.08-1.34,6.38-1.4,8.32-3.9,0-.71-.28-1.34-1.03-1.77-.63-.88-2.96-1.14-2.79-.88-.11-.09-.23-.2-.34-.31-1.25.17-4.84,1.51-6.55.6-2.79,0-4.16,2.36-5.52,4.19-.23,1.28,1.42,3.1,2.56,4.41-1.31,3.73.11,8.83-1.25,12.22,1.02,5.21.97,10.68-.29,15.41,1.31,1.34.23,3.53,1.94,4.76,1.48.83,3.25-.2,4.33-.26,4.21-3.47,6.49-3.53,11.96-3.73,1.65-.94-.11-4.7-1.42-3.67h0ZM253.21,73.53c.11,0,.57-1.77.4-2.08-1.77-.71-4.39.09-6.72,0-1.88.48-3.82,1.51-5.98.26-1.03-8.86,1.82-21.3,1.25-29.62-.85-1.11-1.82-1.4-3.47-1.51-1.2.54-1.82,1.68-2.22,2.79,1.6,3.67.63,11.11,0,15.58-.63,5.89-1.65,14.69-.29,20.22,1.88,1.08,3.25-.6,4.73-1.2,3.47-2.08,9.68-.37,12.3-4.44h0ZM229.86,73.53c.11,0,.57-1.77.4-2.08-1.77-.71-4.38.09-6.72,0-1.88.48-3.81,1.51-5.98.26-1.02-8.86,1.82-21.3,1.25-29.62-.85-1.11-1.82-1.4-3.47-1.51-1.2.54-1.82,1.68-2.22,2.79,1.6,3.67.63,11.11,0,15.58-.63,5.89-1.65,14.69-.29,20.22,1.88,1.08,3.25-.6,4.73-1.2,3.48-2.08,9.68-.37,12.3-4.44h0ZM202.58,79.28c.51-1.08,2.56-.17,3.53-.85-.29-6.41-.57-11.56-2.28-17.6-.34-1.03-.57-2.22-1.08-3.5-.29-.74-.74-1.94-1.2-2.96-.28-.88-1.54-1.4-1.88-2.51-.63-2.31-2.68-4.61-2.85-5.87-1.88-1.59,1.77-3.22,0-4.81-.74-1.25-1.94-.97-3.36-1.45-2.56,1.57-3.13,3.99-4.56,6.26.11,4.13-2.45,8.49-3.76,12.79-.51,1.14-1.42,2.14-1.25,3.5-2.62,4.27-2.45,7.72-5.07,11.96-.06,1.11-1.14,3.65.57,3.59,1.37,1.51,2.56-.43,4.21-.63,1.03-4.47,2.68-6.58,3.7-10.96,1.31-2.73,3.82-2.25,5.75-3.36.4,0,.34,1.11.4.4,0-.11.11-.31.23-.4,3.59-1.79,3.65,1.71,4.73,3.53.57,2.39,1.08,3.53,1.42,6.32,0-.11.11-.17.17-.26,1.37,1.71-1.59,7.18,2.56,6.81h0ZM194.72,58.49c-1.31.23-3.13-.09-3.82.83h-.68c1.2-1.88,1.6-4.02,2.56-5.87.68,1.62,2.68,3.22,1.94,5.04h0ZM181.34,42.57c-3.08-4.5-8.43-.43-12.07,0-1.6.37-3.36.37-4.5,1.45-3.19,4.24.8,7.83-.85,12.5-.46.8-.46,2.08-1.31,2.36-.63,1.28-.4,3.05.91,3.64v7.4c.85,2.99-.34,6.12,1.02,8.26,1.77,1.03,2.34-.48,3.76-.85.8-1.22,2.68-2.45,1.94-4.41-1.71-3.99-.68-8.14-.97-12.22,3.65.2,8.03-1.03,10.08-3.87.23-1.77-1.6-1.54-2.11-2.62-.34.06-.97-.31-.63.17-2.33.63-5.41.31-7.35.37.06-1.88-.23-4.3.29-5.7,1.54-3.53,4.9-1.68,7.69-2.59,2.05-.26,2.96-2.51,4.1-3.9h0ZM157.87,52.08c.51-2.48.17-5.44.17-8.23-2.33-3.53-3.93.17-5.98,1.45.57,3.93.57,9.08-1.2,12.73-.97,2.56-1.42,5.35-2.56,7.77-.28-.54-.63-1.14-.97-1.82-1.59-1.34-1.94-4.07-3.13-5.58-.34-2.31-1.88-3.59-2.9-5.33-1.2-1.91.57-4.98-.85-6.86-1.48-.54-2.11-1.11-3.93-.91-.8,1.28-1.99,1.17-3.13,2.36-1.2,1.28-2.05,3.7-1.25,5.41,4.5,4.61.46,14.92.23,20.45-.29.17-.4.43-.63.6-.57,1.34-.4,3.16.91,4.19,1.37.8,3.19-.23,4.21-.34,2.73-1.96,1.42-8.37,1.99-11.56-.29-1.62,1.65-2.22,1.77-.6,1.65,2.79,3.36,8.94,4.33,11.59.51,1.28,1.42.8,2.33,1.77,1.37-.26,3.59-.48,4.33-2.08,1.02-4.13,2.45-11.28,3.25-14.55-.11.31-.29.31-.51,0,.85-1.4.85-3.22,1.31-3.5,1.14-2.14.74-4.81,2.22-6.95h0ZM126.15,72.25c-3.13-.6-6.78,1.25-9.8,1.14-.11-4.13-1.94-7.2-.34-11.56.23-2.14,3.59-.74,4.38-2.42.8-1.28,2.85-.88,3.13-2.62-1.25-.6-1.2-2.62-2.85-2.68-1.48.85-2.96,1.94-5.07,1.45.23-3.16-.34-7.57.63-10.37,3.02-1.34,6.32-1.4,8.26-3.9,0-.71-.23-1.34-.97-1.77-.63-.88-2.96-1.14-2.85-.88-.06-.09-.17-.2-.29-.31-1.25.17-4.9,1.51-6.55.6-2.79,0-4.16,2.36-5.52,4.19-.23,1.28,1.42,3.1,2.51,4.41-1.25,3.73.17,8.83-1.2,12.22,1.03,5.21.97,10.68-.34,15.41,1.37,1.34.28,3.53,1.94,4.76,1.54.83,3.25-.2,4.38-.26,4.16-3.47,6.49-3.53,11.9-3.73,1.71-.94-.06-4.7-1.37-3.67h0ZM95.4,62.05c0-.37-.11-.68.23-.91-1.94-.43-2.45-2.51-3.19-3.9.63-1.03,1.25-1.51,2.33-1.96,2.11-1.96,4.84-6.86,3.76-9.68-1.25-1.68-4.1-2.31-6.26-2.59v-.31c-1.82.11-3.87-.17-5.01-.97-1.88-.06-3.93-.11-4.73,1.54,1.37,9.94-1.31,23.75.17,34.51,1.14-.06,2.73.2,3.36-.31.63-.37.28-1.57,1.42-1.2,1.65-1.28.51-2.99.85-5.04-.85-2.31-.17-7.03,0-9.65,4.04,6.44,8.43,13.1,13.44,18.88h1.54c1.71-.74,3.76-.74,4.04-2.68-4.44-4.5-7.86-11.22-11.33-15.72-.28.23-.51.23-.63,0h0ZM88.33,51.31c0-.6-.11-2.99.51-3.27.85.23,4.67,1.62,3.93,3.27-1.03-.17-4.16,1.08-4.44,0h0ZM72.9,79.28c.51-1.08,2.51-.17,3.47-.85-.23-6.41-.57-11.56-2.28-17.6-.28-1.03-.57-2.22-1.08-3.5-.28-.74-.74-1.94-1.14-2.96-.34-.88-1.59-1.4-1.94-2.51-.63-2.31-2.68-4.61-2.85-5.87-1.88-1.59,1.77-3.22,0-4.81-.74-1.25-1.94-.97-3.36-1.45-2.56,1.57-3.13,3.99-4.5,6.26.06,4.13-2.45,8.49-3.76,12.79-.51,1.14-1.48,2.14-1.31,3.5-2.56,4.27-2.45,7.72-5.07,11.96-.06,1.11-1.14,3.65.57,3.59,1.42,1.51,2.56-.43,4.27-.63.91-4.47,2.62-6.58,3.64-10.96,1.31-2.73,3.82-2.25,5.75-3.36.4,0,.34,1.11.4.4,0-.11.11-.31.23-.4,3.59-1.79,3.65,1.71,4.73,3.53.57,2.39,1.08,3.53,1.42,6.32,0-.11.11-.17.17-.26,1.37,1.71-1.59,7.18,2.62,6.81h0ZM64.98,58.49c-1.31.23-3.13-.09-3.82.83h-.63c1.14-1.88,1.54-4.02,2.51-5.87.68,1.62,2.73,3.22,1.94,5.04h0ZM74.95,41.15c-.57-.91-1.42-.71-2.45-1.05-1.88,1.14-2.34,2.93-3.3,4.56.06,3.02,7.06-2.34,5.75-3.5h0ZM59.12,41.15c-.57-.91-1.42-.71-2.45-1.05-1.88,1.14-2.34,2.93-3.3,4.56.06,3.02,7.01-2.34,5.75-3.5h0ZM45.11,45.42c.63-1.03-.06-2.65.63-3.27-.4-.37-.51-.8-.63-1.2-2.05-.11-3.53-1.79-4.73-1.22-.23-.11-.46-.26-.4-.57-2.11.37-4.67.31-6.32,1.17-.91,1.34-1.42-1.28-1.59.37-.34-1.17-2.05-.48-3.19-.63-2.11,1.28-3.53,3.1-4.73,5.61-1.08,2.36,1.03,5.98,1.25,6.86,1.42,5.87.57,13.21,2.28,19.28.91,2.42.91,6.18,0,8.32.68.85,2.39.97,3.82.91,1.54-1.4,4.39-1.88,5.7-3.87,3.25-4.87,9.28-9,8.2-16.03-1.2-3.7-4.5-5.84-7.97-7.09,1.71-3.02,6.78-4.61,7.69-8.63h0ZM32.69,59.03c1.14.11,2.62.88,3.82,1.42,1.2,1.79,3.08,4.13,1.94,6.64-1.65,2.14-2.56,4.84-4.78,6.18.23-4.9-1.59-9.63-.97-14.24h0ZM35.88,48.95c-1.37,1.03-2.33,1.62-3.42,1.51.06-1.22-.51-4.87,2.22-5.35,1.31-.4,2.11-.48,3.42-.34,1.03,2.05-1.59,2.76-2.22,4.19h0Z"/>
</svg>